<svg id="visual" viewBox="0 0 900 600" width="900" height="600" xmlns="http://www.w3.org/2000/svg" xmlns:xlink="http://www.w3.org/1999/xlink" version="1.1"><rect x="0" y="0" width="900" height="600" fill="#001220"></rect><path d="M0 354L21.5 357.8C43 361.7 86 369.3 128.8 380.7C171.7 392 214.3 407 257.2 406.3C300 405.7 343 389.3 385.8 391C428.7 392.7 471.3 412.3 514.2 422.3C557 432.3 600 432.7 642.8 422.8C685.7 413 728.3 393 771.2 379.3C814 365.7 857 358.3 878.5 354.7L900 351L900 601L878.5 601C857 601 814 601 771.2 601C728.3 601 685.7 601 642.8 601C600 601 557 601 514.2 601C471.3 601 428.7 601 385.8 601C343 601 300 601 257.2 601C214.3 601 171.7 601 128.8 601C86 601 43 601 21.5 601L0 601Z" fill="#fa7268"></path><path d="M0 413L21.5 422.3C43 431.7 86 450.3 128.8 456.7C171.7 463 214.3 457 257.2 452.7C300 448.3 343 445.7 385.8 448.2C428.7 450.7 471.3 458.3 514.2 462.2C557 466 600 466 642.8 463.5C685.7 461 728.3 456 771.2 455.2C814 454.3 857 457.7 878.5 459.3L900 461L900 601L878.5 601C857 601 814 601 771.2 601C728.3 601 685.7 601 642.8 601C600 601 557 601 514.2 601C471.3 601 428.7 601 385.8 601C343 601 300 601 257.2 601C214.3 601 171.7 601 128.8 601C86 601 43 601 21.5 601L0 601Z" fill="#ef5f67"></path><path d="M0 450L21.5 457C43 464 86 478 128.8 481.3C171.7 484.7 214.3 477.3 257.2 476.5C300 475.7 343 481.3 385.8 481.7C428.7 482 471.3 477 514.2 472.3C557 467.7 600 463.3 642.8 462.8C685.7 462.3 728.3 465.7 771.2 462.2C814 458.7 857 448.3 878.5 443.2L900 438L900 601L878.5 601C857 601 814 601 771.2 601C728.3 601 685.7 601 642.8 601C600 601 557 601 514.2 601C471.3 601 428.7 601 385.8 601C343 601 300 601 257.2 601C214.3 601 171.7 601 128.8 601C86 601 43 601 21.5 601L0 601Z" fill="#e34c67"></path><path d="M0 502L21.5 500C43 498 86 494 128.8 493C171.7 492 214.3 494 257.2 495C300 496 343 496 385.8 494.2C428.7 492.3 471.3 488.7 514.2 489.5C557 490.3 600 495.7 642.8 501.3C685.7 507 728.3 513 771.2 519.3C814 525.7 857 532.3 878.5 535.7L900 539L900 601L878.5 601C857 601 814 601 771.2 601C728.3 601 685.7 601 642.8 601C600 601 557 601 514.2 601C471.3 601 428.7 601 385.8 601C343 601 300 601 257.2 601C214.3 601 171.7 601 128.8 601C86 601 43 601 21.5 601L0 601Z" fill="#d53867"></path><path d="M0 574L21.5 571.8C43 569.7 86 565.3 128.8 560.7C171.7 556 214.3 551 257.2 551.3C300 551.7 343 557.3 385.8 556.7C428.7 556 471.3 549 514.2 546.2C557 543.3 600 544.7 642.8 544.5C685.7 544.3 728.3 542.7 771.2 543C814 543.3 857 545.7 878.5 546.8L900 548L900 601L878.5 601C857 601 814 601 771.2 601C728.3 601 685.7 601 642.8 601C600 601 557 601 514.2 601C471.3 601 428.7 601 385.8 601C343 601 300 601 257.2 601C214.3 601 171.7 601 128.8 601C86 601 43 601 21.5 601L0 601Z" fill="#c62368"></path></svg>