<svg id="visual" viewBox="0 0 900 600" width="900" height="600" xmlns="http://www.w3.org/2000/svg" xmlns:xlink="http://www.w3.org/1999/xlink" version="1.1"><rect x="0" y="0" width="900" height="600" fill="#001220"></rect><path d="M0 257L21.5 262.3C43 267.7 86 278.3 128.8 294C171.7 309.7 214.3 330.3 257.2 329.2C300 328 343 305 385.8 307.5C428.7 310 471.3 338 514.2 352C557 366 600 366 642.8 352C685.7 338 728.3 310 771.2 291C814 272 857 262 878.5 257L900 252L900 601L878.5 601C857 601 814 601 771.2 601C728.3 601 685.7 601 642.8 601C600 601 557 601 514.2 601C471.3 601 428.7 601 385.8 601C343 601 300 601 257.2 601C214.3 601 171.7 601 128.8 601C86 601 43 601 21.5 601L0 601Z" fill="#fa7268"></path><path d="M0 339L21.5 352C43 365 86 391 128.8 399.8C171.7 408.7 214.3 400.3 257.2 394.2C300 388 343 384 385.8 387.5C428.7 391 471.3 402 514.2 407.5C557 413 600 413 642.8 409.3C685.7 405.7 728.3 398.3 771.2 397.2C814 396 857 401 878.5 403.5L900 406L900 601L878.5 601C857 601 814 601 771.2 601C728.3 601 685.7 601 642.8 601C600 601 557 601 514.2 601C471.3 601 428.7 601 385.8 601C343 601 300 601 257.2 601C214.3 601 171.7 601 128.8 601C86 601 43 601 21.5 601L0 601Z" fill="#ef5f67"></path><path d="M0 390L21.5 399.8C43 409.7 86 429.3 128.8 434C171.7 438.7 214.3 428.3 257.2 427.3C300 426.3 343 434.7 385.8 435.3C428.7 436 471.3 429 514.2 422.3C557 415.7 600 409.3 642.8 408.5C685.7 407.7 728.3 412.3 771.2 407.5C814 402.7 857 388.3 878.5 381.2L900 374L900 601L878.5 601C857 601 814 601 771.2 601C728.3 601 685.7 601 642.8 601C600 601 557 601 514.2 601C471.3 601 428.7 601 385.8 601C343 601 300 601 257.2 601C214.3 601 171.7 601 128.8 601C86 601 43 601 21.5 601L0 601Z" fill="#e34c67"></path><path d="M0 464L21.5 461.2C43 458.3 86 452.7 128.8 451.2C171.7 449.7 214.3 452.3 257.2 453.7C300 455 343 455 385.8 452.3C428.7 449.7 471.3 444.3 514.2 445.5C557 446.7 600 454.3 642.8 462.5C685.7 470.7 728.3 479.3 771.2 488.2C814 497 857 506 878.5 510.5L900 515L900 601L878.5 601C857 601 814 601 771.2 601C728.3 601 685.7 601 642.8 601C600 601 557 601 514.2 601C471.3 601 428.7 601 385.8 601C343 601 300 601 257.2 601C214.3 601 171.7 601 128.8 601C86 601 43 601 21.5 601L0 601Z" fill="#d53867"></path><path d="M0 564L21.5 561C43 558 86 552 128.8 545.5C171.7 539 214.3 532 257.2 532.5C300 533 343 541 385.8 540C428.7 539 471.3 529 514.2 524.8C557 520.7 600 522.3 642.8 522.2C685.7 522 728.3 520 771.2 520.7C814 521.3 857 524.7 878.5 526.3L900 528L900 601L878.5 601C857 601 814 601 771.2 601C728.3 601 685.7 601 642.8 601C600 601 557 601 514.2 601C471.3 601 428.7 601 385.8 601C343 601 300 601 257.2 601C214.3 601 171.7 601 128.8 601C86 601 43 601 21.5 601L0 601Z" fill="#c62368"></path></svg>