<svg id="visual" viewBox="0 0 900 600" width="900" height="600" xmlns="http://www.w3.org/2000/svg" xmlns:xlink="http://www.w3.org/1999/xlink" version="1.1"><path d="M0 67L13.7 75C27.3 83 54.7 99 82 102C109.3 105 136.7 95 163.8 98C191 101 218 117 245.2 115C272.3 113 299.7 93 327 91C354.3 89 381.7 105 409 110C436.3 115 463.7 109 491 114C518.3 119 545.7 135 573 147C600.3 159 627.7 167 654.8 162C682 157 709 139 736.2 133C763.3 127 790.7 133 818 138C845.3 143 872.7 147 886.3 149L900 151L900 0L886.3 0C872.7 0 845.3 0 818 0C790.7 0 763.3 0 736.2 0C709 0 682 0 654.8 0C627.7 0 600.3 0 573 0C545.7 0 518.3 0 491 0C463.7 0 436.3 0 409 0C381.7 0 354.3 0 327 0C299.7 0 272.3 0 245.2 0C218 0 191 0 163.8 0C136.7 0 109.3 0 82 0C54.7 0 27.3 0 13.7 0L0 0Z" fill="#003375"></path><path d="M0 109L13.7 122C27.3 135 54.7 161 82 168C109.3 175 136.7 163 163.8 173C191 183 218 215 245.2 209C272.3 203 299.7 159 327 155C354.3 151 381.7 187 409 196C436.3 205 463.7 187 491 183C518.3 179 545.7 189 573 201C600.3 213 627.7 227 654.8 232C682 237 709 233 736.2 230C763.3 227 790.7 225 818 220C845.3 215 872.7 207 886.3 203L900 199L900 149L886.3 147C872.7 145 845.3 141 818 136C790.7 131 763.3 125 736.2 131C709 137 682 155 654.8 160C627.7 165 600.3 157 573 145C545.7 133 518.3 117 491 112C463.7 107 436.3 113 409 108C381.7 103 354.3 87 327 89C299.7 91 272.3 111 245.2 113C218 115 191 99 163.8 96C136.7 93 109.3 103 82 100C54.7 97 27.3 81 13.7 73L0 65Z" fill="#224da7"></path><path d="M0 367L13.7 356C27.3 345 54.7 323 82 315C109.3 307 136.7 313 163.8 323C191 333 218 347 245.2 361C272.3 375 299.7 389 327 384C354.3 379 381.7 355 409 351C436.3 347 463.7 363 491 379C518.3 395 545.7 411 573 418C600.3 425 627.7 423 654.8 405C682 387 709 353 736.2 348C763.3 343 790.7 367 818 372C845.3 377 872.7 363 886.3 356L900 349L900 197L886.3 201C872.7 205 845.3 213 818 218C790.7 223 763.3 225 736.2 228C709 231 682 235 654.8 230C627.7 225 600.3 211 573 199C545.7 187 518.3 177 491 181C463.7 185 436.3 203 409 194C381.7 185 354.3 149 327 153C299.7 157 272.3 201 245.2 207C218 213 191 181 163.8 171C136.7 161 109.3 173 82 166C54.7 159 27.3 133 13.7 120L0 107Z" fill="#466abd"></path><path d="M0 553L13.7 551C27.3 549 54.7 545 82 536C109.3 527 136.7 513 163.8 517C191 521 218 543 245.2 547C272.3 551 299.7 537 327 529C354.3 521 381.7 519 409 522C436.3 525 463.7 533 491 533C518.3 533 545.7 525 573 526C600.3 527 627.7 537 654.8 540C682 543 709 539 736.2 542C763.3 545 790.7 555 818 559C845.3 563 872.7 561 886.3 560L900 559L900 347L886.3 354C872.7 361 845.3 375 818 370C790.7 365 763.3 341 736.2 346C709 351 682 385 654.8 403C627.7 421 600.3 423 573 416C545.7 409 518.3 393 491 377C463.7 361 436.3 345 409 349C381.7 353 354.3 377 327 382C299.7 387 272.3 373 245.2 359C218 345 191 331 163.8 321C136.7 311 109.3 305 82 313C54.7 321 27.3 343 13.7 354L0 365Z" fill="#224da7"></path><path d="M0 601L13.7 601C27.3 601 54.7 601 82 601C109.3 601 136.7 601 163.8 601C191 601 218 601 245.2 601C272.3 601 299.7 601 327 601C354.3 601 381.7 601 409 601C436.3 601 463.7 601 491 601C518.3 601 545.7 601 573 601C600.3 601 627.7 601 654.8 601C682 601 709 601 736.2 601C763.3 601 790.7 601 818 601C845.3 601 872.7 601 886.3 601L900 601L900 557L886.3 558C872.7 559 845.3 561 818 557C790.7 553 763.3 543 736.2 540C709 537 682 541 654.8 538C627.7 535 600.3 525 573 524C545.7 523 518.3 531 491 531C463.7 531 436.3 523 409 520C381.7 517 354.3 519 327 527C299.7 535 272.3 549 245.2 545C218 541 191 519 163.8 515C136.7 511 109.3 525 82 534C54.7 543 27.3 547 13.7 549L0 551Z" fill="#003375"></path></svg>